<svg height="300" width="600" xmlns="http://www.w3.org/2000/svg">
<title>Your Diagram Title</title>
<!-- Generated with SankeyMATIC: 20/03/2025 14:49:39 -->
<rect height="300" width="600" fill="#ffffff"></rect>
<g transform="translate(162.73167,0)">
<g id="sankey_flows">
<path id="flow2" d="M12 163.46553C233.9426 163.46553 126.33406 235.80519 348.27666 235.80519" fill="none" stroke-width="107.15357" stroke="#1f77b4" opacity="0.45"><title>Candidatures envoyées → Refusées: 10</title></path>
<path id="flow0" d="M12 93.81571C233.9426 93.81571 126.33406 128.42546 348.27666 128.42546" fill="none" stroke-width="32.14607" stroke="#1f77b4" opacity="0.45"><title>Candidatures envoyées → En attente: 3</title></path>
<path id="flow1" d="M12 72.38499C233.9426 72.38499 126.33406 37.35768 348.27666 37.35768" fill="none" stroke-width="10.71536" stroke="#1f77b4" opacity="0.45"><title>Candidatures envoyées → Acceptée: 1</title></path>
</g>
<g id="sankey_nodes">
<g class="node">
<rect id="r0" class="for_r0" x="0" y="105.92691" height="150.015" width="12" fill="#1f77b4" fill-opacity="1" transform="translate(0,-38.89959)"><title>Candidatures envoyées:
14</title></rect>
</g>
<g class="node">
<rect id="r1" class="for_r1" x="348.27666" y="13.12369" height="32.14607" width="12" fill="#ff7f0e" fill-opacity="1" transform="translate(0,99.22874)"><title>En attente:
3</title></rect>
</g>
<g class="node">
<rect id="r2" class="for_r2" x="348.27666" y="107.13857" height="10.71536" width="12" fill="#2ca02c" fill-opacity="1" transform="translate(0,-75.13857)"><title>Acceptée:
1</title></rect>
</g>
<g class="node">
<rect id="r3" class="for_r3" x="348.27666" y="179.72274" height="107.15357" width="12" fill="#d62728" fill-opacity="1" transform="translate(0,2.50567)"><title>Refusées:
10</title></rect>
</g>
</g>
<g id="sankey_labels" font-family="sans-serif" font-size="16px" fill="#000000">
<rect id="label0_bg" class="for_r0" x="-162.59584" y="159.64109" width="161.09832" height="42.25334" rx="4" fill="#fff" fill-opacity="0.75" stroke="none" stroke-width="0" stroke-opacity="0" transform="translate(0,-38.89959)"></rect>
<text id="label0" class="for_r0" text-anchor="end" x="-6.3" y="180.93441" font-weight="400" font-size="14.4px" dy="-5.15999" transform="translate(0,-38.89959)">Candidatures envoyées<tspan x="-6.3" dy="19.32" font-weight="400" font-size="17.6px">14</tspan></text>
<rect id="label1_bg" class="for_r1" x="361.90999" y="7.9034" width="75.35833" height="42.25333" rx="4" fill="#fff" fill-opacity="0.75" stroke="none" stroke-width="0" stroke-opacity="0" transform="translate(0,99.22874)"></rect>
<text id="label1" class="for_r1" text-anchor="start" x="366.57666" y="29.19672" font-weight="400" font-size="14.4px" dy="-5.15999" transform="translate(0,99.22874)">En attente<tspan x="366.57666" dy="19.32" font-weight="400" font-size="17.6px">3</tspan></text>
<rect id="label2_bg" class="for_r2" x="361.24334" y="91.20292" width="70.42083" height="42.25333" rx="4" fill="#fff" fill-opacity="0.75" stroke="none" stroke-width="0" stroke-opacity="0" transform="translate(0,-75.13857)"></rect>
<text id="label2" class="for_r2" text-anchor="start" x="366.57666" y="112.49625" font-weight="400" font-size="14.4px" dy="-5.15999" transform="translate(0,-75.13857)">Acceptée<tspan x="366.57666" dy="19.32" font-weight="400" font-size="17.6px">1</tspan></text>
<rect id="label3_bg" class="for_r3" x="361.90999" y="212.0062" width="70.6762" height="42.25334" rx="4" fill="#fff" fill-opacity="0.75" stroke="none" stroke-width="0" stroke-opacity="0" transform="translate(0,2.50567)"></rect>
<text id="label3" class="for_r3" text-anchor="start" x="366.57666" y="233.29953" font-weight="400" font-size="14.4px" dy="-5.15999" transform="translate(0,2.50567)">Refusées<tspan x="366.57666" dy="19.32" font-weight="400" font-size="17.6px">10</tspan></text>
</g>
</g></svg>